<?xml version="1.0" encoding="UTF-8" standalone="no"?>
<!-- Created with Inkscape (http://www.inkscape.org/) -->

<svg
   xmlns:dc="http://purl.org/dc/elements/1.1/"
   xmlns:cc="http://creativecommons.org/ns#"
   xmlns:rdf="http://www.w3.org/1999/02/22-rdf-syntax-ns#"
   xmlns:svg="http://www.w3.org/2000/svg"
   xmlns="http://www.w3.org/2000/svg"
   xmlns:sodipodi="http://sodipodi.sourceforge.net/DTD/sodipodi-0.dtd"
   xmlns:inkscape="http://www.inkscape.org/namespaces/inkscape"
   id="svg2"
   version="1.1"
   inkscape:version="0.91 r13725"
   xml:space="preserve"
   width="354.32874"
   height="354.32874"
   viewBox="0 0 354.32874 354.32874"
   sodipodi:docname="digityser.svg"><metadata
     id="metadata8"><rdf:RDF><cc:Work
         rdf:about=""><dc:format>image/svg+xml</dc:format><dc:type
           rdf:resource="http://purl.org/dc/dcmitype/StillImage" /><dc:title></dc:title></cc:Work></rdf:RDF></metadata><defs
     id="defs6"><clipPath
       clipPathUnits="userSpaceOnUse"
       id="clipPath18"><path
         d="m 0,283.463 283.463,0 L 283.463,0 0,0 0,283.463 Z"
         id="path20"
         inkscape:connector-curvature="0" /></clipPath><clipPath
       clipPathUnits="userSpaceOnUse"
       id="clipPath66"><path
         d="m 63.147,132.607 94.019,0 0,94.019 -94.019,0 0,-94.019 z"
         id="path68"
         inkscape:connector-curvature="0" /></clipPath><clipPath
       clipPathUnits="userSpaceOnUse"
       id="clipPath82"><path
         d="m 134.327,132.607 94.019,0 0,94.019 -94.019,0 0,-94.019 z"
         id="path84"
         inkscape:connector-curvature="0" /></clipPath><clipPath
       clipPathUnits="userSpaceOnUse"
       id="clipPath98"><path
         d="m 0,283.463 283.463,0 L 283.463,0 0,0 0,283.463 Z"
         id="path100"
         inkscape:connector-curvature="0" /></clipPath><clipPath
       clipPathUnits="userSpaceOnUse"
       id="clipPath114"><path
         d="m 14.346,38.615 120.5,0 0,120.501 -120.5,0 0,-120.501 z"
         id="path116"
         inkscape:connector-curvature="0" /></clipPath><clipPath
       clipPathUnits="userSpaceOnUse"
       id="clipPath138"><path
         d="m 0,283.463 283.463,0 L 283.463,0 0,0 0,283.463 Z"
         id="path140"
         inkscape:connector-curvature="0" /></clipPath></defs><sodipodi:namedview
     pagecolor="#ffffff"
     bordercolor="#666666"
     borderopacity="1"
     objecttolerance="10"
     gridtolerance="10"
     guidetolerance="10"
     inkscape:pageopacity="0"
     inkscape:pageshadow="2"
     inkscape:window-width="840"
     inkscape:window-height="480"
     id="namedview4"
     showgrid="false"
     inkscape:zoom="0.66604815"
     inkscape:cx="177.16437"
     inkscape:cy="177.16437"
     inkscape:window-x="0"
     inkscape:window-y="27"
     inkscape:window-maximized="0"
     inkscape:current-layer="g10" /><g
     id="g10"
     inkscape:groupmode="layer"
     inkscape:label="logoValidÇ"
     transform="matrix(1.25,0,0,-1.25,0,354.32875)"><path
       d="m 26.608,26.343 230.247,0 0,230.777 -230.247,0 0,-230.777 z"
       style="fill:#328e8c;fill-opacity:1;fill-rule:nonzero;stroke:none"
       id="path12"
       inkscape:connector-curvature="0" /><g
       id="g14"><g
         id="g16"
         clip-path="url(#clipPath18)"><g
           id="g22"
           transform="translate(126.1035,113.3721)"><path
             d="m 0,0 c 0.082,5.511 -0.412,10.94 -6.744,10.94 -3.867,0 -6.334,-1.563 -6.334,-5.758 0,-4.688 2.961,-6.498 6.581,-8.801 3.783,-2.385 10.775,-6.992 13.982,-10.117 3.949,-3.866 5.182,-7.567 5.182,-12.914 0,-11.679 -7.732,-17.766 -18.999,-17.766 -13.82,0 -18.755,7.732 -18.755,18.754 l 0,4.524 11.515,0 0,-3.62 c -0.247,-6.003 1.564,-10.364 7.24,-10.364 4.852,0 7.155,2.55 7.155,7.24 0,3.618 -1.644,6.085 -4.606,8.141 -6.005,4.689 -13.49,8.061 -18.178,14.231 -1.893,2.796 -2.961,6.168 -2.961,9.458 0,10.529 5.921,16.287 18.096,16.287 C 11.516,20.235 11.022,6.087 11.105,0 L 0,0 Z"
             style="fill:#ffffff;fill-opacity:1;fill-rule:nonzero;stroke:none"
             id="path24"
             inkscape:connector-curvature="0" /></g><g
           id="g26"
           transform="translate(148.8664,69.4359)"><path
             d="m 0,0 0,61.69 32.407,0 0,-9.048 -20.893,0 0,-15.545 19.248,0 0,-9.048 -19.248,0 0,-19 20.893,0 L 32.407,0 0,0 Z"
             style="fill:#ffffff;fill-opacity:1;fill-rule:nonzero;stroke:none"
             id="path28"
             inkscape:connector-curvature="0" /></g><g
           id="g30"
           transform="translate(203.6966,105.0518)"><path
             d="m 0,0 9.049,0 c 3.782,0.247 6.744,2.714 6.744,8.883 0,6.91 -2.879,8.061 -7.238,8.143 L 0,17.026 0,0 Z m 0,-9.048 0,-26.568 -11.514,0 0,61.69 21.796,0 c 9.954,0 17.521,-3.454 17.521,-14.806 0,-6.745 -1.729,-13.818 -9.46,-14.887 l 0,-0.165 c 6.828,-0.904 8.884,-5.264 8.884,-11.187 0,-2.549 -0.33,-17.684 2.467,-19.493 l 0,-1.152 -12.667,0 c -1.399,3.949 -1.152,11.516 -1.234,15.628 -0.083,3.785 0,8.966 -3.948,10.117 -3.126,0.906 -6.498,0.823 -9.787,0.823 l -2.058,0 z"
             style="fill:#ffffff;fill-opacity:1;fill-rule:nonzero;stroke:none"
             id="path32"
             inkscape:connector-curvature="0" /></g><g
           id="g34"
           transform="translate(72.3979,162.276)"><path
             d="m 0,0 c 10.282,0 10.94,5.429 10.94,23.277 0,14.559 -1.481,20.317 -8.39,20.317 l -7.567,0 L -5.017,0 0,0 Z m -16.533,-9.049 0,61.691 24.018,0 c 2.797,0 8.39,-1.234 11.927,-6.992 2.632,-4.277 3.373,-11.104 3.373,-21.303 0,-12.174 0,-26.238 -9.46,-31.75 -2.55,-1.481 -5.676,-1.646 -8.555,-1.646 l -21.303,0 z"
             style="fill:#ffffff;fill-opacity:1;fill-rule:nonzero;stroke:none"
             id="path36"
             inkscape:connector-curvature="0" /></g><g
           id="g38"
           transform="translate(123.6964,189.0079)"><path
             d="m 0,0 c 0.493,15.71 1.727,27.39 20.152,27.39 9.87,-0.082 16.698,-2.632 19.33,-13.325 0.575,-2.467 0.493,-5.017 0.575,-7.485 l -11.515,0 c -0.165,6.251 -0.576,11.186 -8.39,11.516 -9.048,0 -8.307,-10.776 -8.307,-15.546 l 0,-17.109 c 0,-5.1 0.41,-13.408 8.307,-13.408 6.58,0 8.719,6.993 8.472,16.287 l -7.979,0 0,9.048 19.165,0 0,-33.149 -8.636,0 0,7.075 -0.165,0 C 28.706,-35.122 24.347,-36.931 20.152,-37.26 1.234,-37.26 0,-25.252 0,-8.802 L 0,0 Z"
             style="fill:#ffffff;fill-opacity:1;fill-rule:nonzero;stroke:none"
             id="path40"
             inkscape:connector-curvature="0" /></g><g
           id="g42"
           transform="translate(192.6864,214.9175)"><path
             d="m 0,0 38.413,0 0,-9.048 -13.408,0 0,-52.642 -11.515,0 0,52.642 L 0,-9.048 0,0 Z"
             style="fill:#ffffff;fill-opacity:1;fill-rule:nonzero;stroke:none"
             id="path44"
             inkscape:connector-curvature="0" /></g><g
           id="g46"
           transform="translate(113.4878,213.8382)"><path
             d="m 0,0 c 0,-2.325 -1.885,-4.21 -4.21,-4.21 l -2.051,0 c -2.325,0 -4.21,1.885 -4.21,4.21 0,2.325 1.885,4.21 4.21,4.21 l 2.051,0 C -1.885,4.21 0,2.325 0,0"
             style="fill:#ffffff;fill-opacity:1;fill-rule:nonzero;stroke:none"
             id="path48"
             inkscape:connector-curvature="0" /></g><g
           id="g50"
           transform="translate(182.3828,211.895)"><path
             d="m 0,0 c 0,-1.252 -1.364,-2.267 -3.046,-2.267 -1.683,0 -3.047,1.015 -3.047,2.267 l 0,3.886 c 0,1.252 1.364,2.267 3.047,2.267 C -1.364,6.153 0,5.138 0,3.886 L 0,0 Z"
             style="fill:#ffffff;fill-opacity:1;fill-rule:nonzero;stroke:none"
             id="path52"
             inkscape:connector-curvature="0" /></g><g
           id="g54"
           transform="translate(111.3107,142.5108)"><path
             d="m 0,0 c 0,-1.52 -2.144,-2.753 -4.789,-2.753 -2.645,0 -4.789,1.233 -4.789,2.753 l 0,3.562 c 0,1.521 2.144,2.753 4.789,2.753 C -2.144,6.315 0,5.083 0,3.562 L 0,0 Z"
             style="fill:#ffffff;fill-opacity:1;fill-rule:nonzero;stroke:none"
             id="path56"
             inkscape:connector-curvature="0" /></g><g
           id="g58"
           transform="translate(77.5611,60.5108)"><path
             d="m 0,0 c 0,-1.52 -2.144,-2.753 -4.789,-2.753 -2.645,0 -4.789,1.233 -4.789,2.753 l 0,3.562 c 0,1.521 2.144,2.753 4.789,2.753 C -2.144,6.315 0,5.083 0,3.562 L 0,0 Z"
             style="fill:#ffffff;fill-opacity:1;fill-rule:nonzero;stroke:none"
             id="path60"
             inkscape:connector-curvature="0" /></g></g></g><g
       id="g62"><g
         id="g64"
         clip-path="url(#clipPath66)"><g
           id="g70"
           transform="translate(108.0021,139.1959)"><path
             d="M 0,0 0,69.232"
             style="fill:none;stroke:#ffffff;stroke-width:6.21899986;stroke-linecap:butt;stroke-linejoin:miter;stroke-miterlimit:10;stroke-dasharray:none;stroke-opacity:1"
             id="path72"
             inkscape:connector-curvature="0" /></g><g
           id="g74"
           transform="translate(108.0021,219.1693)"><path
             d="m 0,0 c 2.966,0 5.371,-2.405 5.371,-5.371 0,-2.966 -2.405,-5.371 -5.371,-5.371 -2.966,0 -5.371,2.405 -5.371,5.371 C -5.371,-2.405 -2.966,0 0,0 Z"
             style="fill:none;stroke:#ffffff;stroke-width:6.21899986;stroke-linecap:butt;stroke-linejoin:miter;stroke-miterlimit:10;stroke-dasharray:none;stroke-opacity:1"
             id="path76"
             inkscape:connector-curvature="0" /></g></g></g><g
       id="g78"><g
         id="g80"
         clip-path="url(#clipPath82)"><g
           id="g86"
           transform="translate(179.1823,139.1959)"><path
             d="M 0,0 0,69.232"
             style="fill:none;stroke:#ffffff;stroke-width:6.21899986;stroke-linecap:butt;stroke-linejoin:miter;stroke-miterlimit:10;stroke-dasharray:none;stroke-opacity:1"
             id="path88"
             inkscape:connector-curvature="0" /></g><g
           id="g90"
           transform="translate(179.1823,219.1693)"><path
             d="m 0,0 c 2.966,0 5.371,-2.405 5.371,-5.371 0,-2.966 -2.405,-5.371 -5.371,-5.371 -2.966,0 -5.371,2.405 -5.371,5.371 C -5.371,-2.405 -2.966,0 0,0 Z"
             style="fill:none;stroke:#ffffff;stroke-width:6.21899986;stroke-linecap:butt;stroke-linejoin:miter;stroke-miterlimit:10;stroke-dasharray:none;stroke-opacity:1"
             id="path92"
             inkscape:connector-curvature="0" /></g></g></g><g
       id="g94"><g
         id="g96"
         clip-path="url(#clipPath98)"><path
           d="m 192.182,137.782 -21.17,0 0,15.965 21.17,0 0,-15.965 z"
           style="fill:#328e8c;fill-opacity:1;fill-rule:nonzero;stroke:none"
           id="path102"
           inkscape:connector-curvature="0" /><path
           d="m 87.679,53.116 -9.667,0 0,16.32 9.667,0 0,-16.32 z"
           style="fill:#34908d;fill-opacity:1;fill-rule:nonzero;stroke:none"
           id="path104"
           inkscape:connector-curvature="0" /><g
           id="g106"
           transform="translate(57.8654,144.0445)"><path
             d="m 0,0 c 0,-4.66 -3.778,-8.438 -8.438,-8.438 -4.659,0 -8.437,3.778 -8.437,8.438 0,4.66 3.778,8.438 8.437,8.438 C -3.778,8.438 0,4.66 0,0"
             style="fill:#ffffff;fill-opacity:1;fill-rule:nonzero;stroke:none"
             id="path108"
             inkscape:connector-curvature="0" /></g></g></g><g
       id="g110"><g
         id="g112"
         clip-path="url(#clipPath114)"><g
           id="g118"
           transform="translate(103.8182,142.5181)"><path
             d="m 0,0 -21.42,-21.168 -0.462,-49.257"
             style="fill:none;stroke:#ffffff;stroke-width:6.37699986;stroke-linecap:butt;stroke-linejoin:miter;stroke-miterlimit:10;stroke-dasharray:none;stroke-opacity:1"
             id="path120"
             inkscape:connector-curvature="0" /></g><g
           id="g122"
           transform="translate(107.4723,140.886)"><path
             d="M 0,0 C -2.756,0.016 -4.977,2.265 -4.961,5.021 -4.944,7.778 -2.696,9.999 0.061,9.982 2.817,9.965 5.038,7.717 5.021,4.961 5.005,2.204 2.756,-0.016 0,0 Z"
             style="fill:none;stroke:#ffffff;stroke-width:6.37699986;stroke-linecap:butt;stroke-linejoin:miter;stroke-miterlimit:10;stroke-dasharray:none;stroke-opacity:1"
             id="path124"
             inkscape:connector-curvature="0" /></g><g
           id="g126"
           transform="translate(51.4827,142.849)"><path
             d="M 0,0 21.311,-21.278 21.358,-73.79"
             style="fill:none;stroke:#ffffff;stroke-width:6.37699986;stroke-linecap:butt;stroke-linejoin:miter;stroke-miterlimit:10;stroke-dasharray:none;stroke-opacity:1"
             id="path128"
             inkscape:connector-curvature="0" /></g><g
           id="g130"
           transform="translate(72.9274,59.0762)"><path
             d="M 0,0 C 2.757,0.003 4.989,2.239 4.986,4.995 4.984,7.752 2.748,9.985 -0.009,9.982 -2.765,9.98 -4.998,7.743 -4.995,4.986 -4.993,2.23 -2.757,-0.003 0,0 Z"
             style="fill:none;stroke:#ffffff;stroke-width:6.37699986;stroke-linecap:butt;stroke-linejoin:miter;stroke-miterlimit:10;stroke-dasharray:none;stroke-opacity:1"
             id="path132"
             inkscape:connector-curvature="0" /></g></g></g><g
       id="g134"><g
         id="g136"
         clip-path="url(#clipPath138)"><g
           id="g142"
           transform="translate(113.1873,213.8382)"><path
             d="m 0,0 c 0,-2.881 -2.335,-5.216 -5.216,-5.216 -2.881,0 -5.217,2.335 -5.217,5.216 0,2.881 2.336,5.216 5.217,5.216 C -2.335,5.216 0,2.881 0,0"
             style="fill:#34908d;fill-opacity:1;fill-rule:nonzero;stroke:none"
             id="path144"
             inkscape:connector-curvature="0" /></g><g
           id="g146"
           transform="translate(54.6442,144.1157)"><path
             d="m 0,0 c 0,-2.881 -2.335,-5.216 -5.216,-5.216 -2.881,0 -5.217,2.335 -5.217,5.216 0,2.881 2.336,5.216 5.217,5.216 C -2.335,5.216 0,2.881 0,0"
             style="fill:#34908d;fill-opacity:1;fill-rule:nonzero;stroke:none"
             id="path148"
             inkscape:connector-curvature="0" /></g><g
           id="g150"
           transform="translate(77.9886,64.2195)"><path
             d="m 0,0 c 0,-2.881 -2.335,-5.216 -5.216,-5.216 -2.881,0 -5.217,2.335 -5.217,5.216 0,2.881 2.336,5.216 5.217,5.216 C -2.335,5.216 0,2.881 0,0"
             style="fill:#34908d;fill-opacity:1;fill-rule:nonzero;stroke:none"
             id="path152"
             inkscape:connector-curvature="0" /></g><g
           id="g154"
           transform="translate(112.6658,145.9907)"><path
             d="m 0,0 c 0,-2.881 -2.335,-5.216 -5.216,-5.216 -2.881,0 -5.217,2.335 -5.217,5.216 0,2.881 2.336,5.216 5.217,5.216 C -2.335,5.216 0,2.881 0,0"
             style="fill:#dd5b1d;fill-opacity:1;fill-rule:nonzero;stroke:none"
             id="path156"
             inkscape:connector-curvature="0" /></g><g
           id="g158"
           transform="translate(184.3957,213.949)"><path
             d="m 0,0 c 0,-2.881 -2.335,-5.216 -5.216,-5.216 -2.881,0 -5.217,2.335 -5.217,5.216 0,2.881 2.336,5.216 5.217,5.216 C -2.335,5.216 0,2.881 0,0"
             style="fill:#34908d;fill-opacity:1;fill-rule:nonzero;stroke:none"
             id="path160"
             inkscape:connector-curvature="0" /></g></g></g></g></svg>