<svg width="894" height="233" viewBox="0 0 894 233" xmlns="http://www.w3.org/2000/svg">
  <title>Mozilla</title>
  <g fill="#4E5050" fill-rule="evenodd">
    <path d="M37.526 66.578c2.705 4.176 3.898 7.9 5.41 15.76 10.578-10.326 23.623-15.76 37.86-15.76 12.86 0 23.413 4.176 31.58 12.7 2.2 2.135 4.32 4.89 6.15 7.596 14.21-14.555 26.938-20.296 43.987-20.296 12.142 0 23.65 3.63 30.677 9.677 8.776 7.584 11.56 16.702 11.56 37.93v110.443h-39.453v-102.53c0-18.586-2.2-22.18-12.78-22.18-7.583 0-18.24 5.172-26.99 13.06v111.65h-38.5V123.555c0-19.38-2.81-23.93-14.104-23.93-7.504 0-17.898 3.887-26.647 11.814v113.188H6.558V116.29c0-22.43-1.538-32.12-5.806-39.742l36.774-9.97M276.895 112.048c-2.785 8.22-4.268 19.13-4.268 34.615 0 17.856 1.828 31.274 5.142 39.134 3.658 8.5 12.807 12.74 20.626 12.74 17.607 0 25.137-15.76 25.137-52.47 0-20.948-2.732-34.628-8.166-41.626-3.9-5.117-10.235-8.165-17.553-8.165-9.73 0-17.632 6.043-20.92 15.773zm73.097-22.43c12.41 14.557 17.95 31.538 17.95 56.715 0 26.7-6.123 44.938-19.514 60.08-11.77 13.336-27.282 21.556-51.198 21.556-42.236 0-69.784-31.567-69.784-80.392 0-48.868 27.84-81.346 69.784-81.346 22.14 0 39.427 7.61 52.762 23.387zM498.708 69.283V97.2l-68.616 99.203h71.295l-9.73 28.225H377.33v-25.175l73.046-101.64h-66.95v-28.53h115.282M562.69 65.623v159.005h-40.648V72.012l40.648-6.39zm4.77-39.11c0 13.977-11.11 25.137-25.16 25.137-13.603 0-24.79-11.16-24.79-25.136 0-13.946 11.56-25.2 25.476-25.2 13.63 0 24.475 11.254 24.475 25.2zM636.715 40.49v121.035c0 26.738.32 30.332 2.76 34.574 1.536 2.755 4.823 4.242 8.218 4.242 1.458 0 2.332 0 4.533-.56l6.947 24.247c-6.947 2.717-15.457 4.232-24.258 4.232-17.342 0-31.288-8.17-36.116-21.188-3.05-7.9-3.712-12.778-3.712-34.917V56.21c0-20.31-.528-32.72-2.043-46.73l41.577-9.4c1.457 8.486 2.093 18.507 2.093 40.41M721.028 40.49v121.035c0 26.738.347 30.332 2.84 34.574 1.43 2.755 4.717 4.242 8.113 4.242 1.538 0 2.466 0 4.613-.56l6.922 24.247c-6.922 2.717-15.434 4.232-24.263 4.232-17.31 0-31.284-8.17-36.136-21.188-3.102-7.9-3.607-12.778-3.607-34.917V56.21c0-20.31-.61-32.72-2.175-46.73l41.52-9.4c1.672 8.486 2.173 18.507 2.173 40.41M837.505 156.673c-28.105 0-37.967 5.117-37.967 23.703 0 12.09 7.69 20.282 18 20.282 7.558 0 15.196-3.95 21.215-10.605l.663-33.38h-1.91zM784.82 75.06c15.116-6.39 28.11-9.094 42.426-9.094 26.143 0 44.013 9.68 50.136 26.99 2.016 6.367 2.944 11.22 2.76 27.92l-.984 52.156v2.755c0 16.678 2.76 23.068 14.642 31.846l-21.586 24.922c-9.495-3.977-17.95-10.976-21.903-18.84-2.994 3.064-6.362 6.034-9.438 8.18-7.53 5.465-18.53 8.513-31.26 8.513-34.598 0-53.396-17.633-53.396-48.52 0-36.47 25.24-53.48 74.66-53.48 2.97 0 5.78 0 9.15.345v-6.336c0-17.327-3.37-23.094-18.322-23.094-12.886 0-28.185 6.335-44.837 17.59l-17.313-29.137c8.246-5.172 14.32-8.18 25.267-12.715z"/>
  </g>
</svg>
